<?xml version="1.0" encoding="UTF-8" standalone="no"?>
<svg
   xmlns:dc="http://purl.org/dc/elements/1.1/"
   xmlns:cc="http://creativecommons.org/ns#"
   xmlns:rdf="http://www.w3.org/1999/02/22-rdf-syntax-ns#"
   xmlns:svg="http://www.w3.org/2000/svg"
   xmlns="http://www.w3.org/2000/svg"
   xmlns:xlink="http://www.w3.org/1999/xlink"
   xmlns:sodipodi="http://sodipodi.sourceforge.net/DTD/sodipodi-0.dtd"
   xmlns:inkscape="http://www.inkscape.org/namespaces/inkscape"
   width="282pt"
   height="282pt"
   viewBox="0 0 282 282"
   version="1.1"
   id="svg2"
   inkscape:version="0.91 r13725"
   sodipodi:docname="simbuto.svg">
  <metadata
     id="metadata102">
    <rdf:RDF>
      <cc:Work
         rdf:about="">
        <dc:format>image/svg+xml</dc:format>
        <dc:type
           rdf:resource="http://purl.org/dc/dcmitype/StillImage" />
        <dc:title />
      </cc:Work>
    </rdf:RDF>
  </metadata>
  <sodipodi:namedview
     pagecolor="#ffffff"
     bordercolor="#666666"
     borderopacity="1"
     objecttolerance="10"
     gridtolerance="10"
     guidetolerance="10"
     inkscape:pageopacity="0"
     inkscape:pageshadow="2"
     inkscape:window-width="1920"
     inkscape:window-height="1021"
     id="namedview100"
     showgrid="false"
     inkscape:snap-page="true"
     fit-margin-top="0"
     fit-margin-left="0"
     fit-margin-right="0"
     fit-margin-bottom="0"
     inkscape:zoom="0.84551919"
     inkscape:cx="367.27756"
     inkscape:cy="141.11232"
     inkscape:window-x="1280"
     inkscape:window-y="35"
     inkscape:window-maximized="1"
     inkscape:current-layer="svg2"
     inkscape:object-nodes="false"
     inkscape:object-paths="false"
     inkscape:snap-object-midpoints="true"
     inkscape:snap-center="true"
     inkscape:snap-smooth-nodes="false"
     units="pt"
     inkscape:snap-nodes="true"
     inkscape:snap-others="true" />
  <defs
     id="defs4">
    <linearGradient
       inkscape:collect="always"
       id="linearGradient4904">
      <stop
         style="stop-color:#1c5b1a;stop-opacity:1"
         offset="0"
         id="stop4906" />
      <stop
         style="stop-color:#133c11;stop-opacity:1"
         offset="1"
         id="stop4908" />
    </linearGradient>
    <linearGradient
       inkscape:collect="always"
       id="linearGradient4178">
      <stop
         style="stop-color:#e1d02e;stop-opacity:1"
         offset="0"
         id="stop4180" />
      <stop
         style="stop-color:#ddb53d;stop-opacity:1"
         offset="1"
         id="stop4182" />
    </linearGradient>
    <linearGradient
       inkscape:collect="always"
       id="linearGradient4167">
      <stop
         style="stop-color:#5c5c5c;stop-opacity:1;"
         offset="0"
         id="stop4169" />
      <stop
         style="stop-color:#5c5c5c;stop-opacity:0;"
         offset="1"
         id="stop4171" />
    </linearGradient>
    <inkscape:path-effect
       effect="skeletal"
       id="path-effect5582"
       is_visible="true"
       pattern="m 0.78125,18.176267 184.82206,-76.270462 0,48.5053328 L 0.78125,48.617544 Z"
       copytype="single_stretched"
       prop_scale="1"
       scale_y_rel="false"
       spacing="0"
       normal_offset="0"
       tang_offset="0"
       prop_units="false"
       vertical_pattern="false"
       fuse_tolerance="0"
       pattern-nodetypes="ccccc" />
    <inkscape:path-effect
       effect="skeletal"
       id="path-effect4308"
       is_visible="true"
       pattern="M -10.29053,60.791051 131.51782,0.23654131 138.61405,54.759246 -7.4520378,99.702045 Z"
       copytype="single_stretched"
       prop_scale="1"
       scale_y_rel="false"
       spacing="0"
       normal_offset="0"
       tang_offset="0"
       prop_units="false"
       vertical_pattern="false"
       fuse_tolerance="0"
       pattern-nodetypes="ccccc" />
    <inkscape:path-effect
       effect="skeletal"
       id="path-effect4240"
       is_visible="true"
       pattern="m 0.4730821,0 1,0"
       copytype="single_stretched"
       prop_scale="1"
       scale_y_rel="false"
       spacing="0"
       normal_offset="0"
       tang_offset="0"
       prop_units="false"
       vertical_pattern="false"
       fuse_tolerance="0" />
    <inkscape:path-effect
       effect="skeletal"
       id="path-effect4199"
       is_visible="true"
       pattern="M 0,0 1,0"
       copytype="single_stretched"
       prop_scale="1"
       scale_y_rel="false"
       spacing="0"
       normal_offset="0"
       tang_offset="0"
       prop_units="false"
       vertical_pattern="false"
       fuse_tolerance="0" />
    <inkscape:path-effect
       effect="skeletal"
       id="path-effect4192"
       is_visible="true"
       pattern="M 0,0 1,0"
       copytype="single_stretched"
       prop_scale="1"
       scale_y_rel="false"
       spacing="0"
       normal_offset="0"
       tang_offset="0"
       prop_units="false"
       vertical_pattern="false"
       fuse_tolerance="0" />
    <inkscape:path-effect
       effect="skeletal"
       id="path-effect4176"
       is_visible="true"
       pattern="M 0,0 1,0"
       copytype="single_stretched"
       prop_scale="1"
       scale_y_rel="false"
       spacing="0"
       normal_offset="0"
       tang_offset="0"
       prop_units="false"
       vertical_pattern="false"
       fuse_tolerance="0" />
    <inkscape:path-effect
       effect="powerstroke"
       id="path-effect4349"
       is_visible="true"
       offset_points="0,0.4"
       sort_points="true"
       interpolator_type="Linear"
       interpolator_beta="0.2"
       start_linecap_type="zerowidth"
       linejoin_type="round"
       miter_limit="4"
       end_linecap_type="zerowidth"
       cusp_linecap_type="round" />
    <inkscape:path-effect
       effect="powerstroke"
       id="path-effect4345"
       is_visible="true"
       offset_points="0,0.4"
       sort_points="true"
       interpolator_type="Linear"
       interpolator_beta="0.2"
       start_linecap_type="zerowidth"
       linejoin_type="round"
       miter_limit="4"
       end_linecap_type="zerowidth"
       cusp_linecap_type="round" />
    <inkscape:path-effect
       effect="powerstroke"
       id="path-effect4341"
       is_visible="true"
       offset_points="0,0.4"
       sort_points="true"
       interpolator_type="Linear"
       interpolator_beta="0.2"
       start_linecap_type="zerowidth"
       linejoin_type="round"
       miter_limit="4"
       end_linecap_type="zerowidth"
       cusp_linecap_type="round" />
    <inkscape:path-effect
       effect="powerstroke"
       id="path-effect4337"
       is_visible="true"
       offset_points="0.016717398,10.068381"
       sort_points="true"
       interpolator_type="Linear"
       interpolator_beta="0.2"
       start_linecap_type="zerowidth"
       linejoin_type="round"
       miter_limit="4"
       end_linecap_type="zerowidth"
       cusp_linecap_type="round" />
    <inkscape:path-effect
       effect="skeletal"
       id="path-effect4319"
       is_visible="true"
       pattern="m -24.085409,158.879 c 0,-2.76 2.24,-5 5,-5 2.76,0 5,2.24 5,5 0,2.76 -2.24,5 -5,5 -2.76,0 -5,-2.24 -5,-5 z"
       copytype="single_stretched"
       prop_scale="1"
       scale_y_rel="false"
       spacing="0"
       normal_offset="0"
       tang_offset="0"
       prop_units="false"
       vertical_pattern="false"
       fuse_tolerance="0" />
    <clipPath
       id="clip1">
      <path
         d="m 0.707031,0.570312 280.871089,0 0,280.874998 -280.871089,0 z m 0,0"
         id="path7"
         inkscape:connector-curvature="0" />
    </clipPath>
    <linearGradient
       inkscape:collect="always"
       xlink:href="#linearGradient4167"
       id="linearGradient4173"
       x1="45.415878"
       y1="87.068642"
       x2="265.91522"
       y2="220.4778"
       gradientUnits="userSpaceOnUse" />
    <linearGradient
       inkscape:collect="always"
       xlink:href="#linearGradient4178"
       id="linearGradient4184"
       x1="554.45221"
       y1="96.551811"
       x2="559.18304"
       y2="94.659485"
       gradientUnits="userSpaceOnUse" />
    <linearGradient
       inkscape:collect="always"
       xlink:href="#linearGradient4904"
       id="linearGradient4910"
       x1="77.673569"
       y1="112.25524"
       x2="209.56259"
       y2="199.30234"
       gradientUnits="userSpaceOnUse" />
  </defs>
  <path
     style="color:#000000;clip-rule:nonzero;display:inline;overflow:visible;visibility:visible;opacity:1;isolation:auto;mix-blend-mode:normal;color-interpolation:sRGB;color-interpolation-filters:linearRGB;solid-color:#000000;solid-opacity:1;fill:#2c2c2c;fill-opacity:1;fill-rule:evenodd;stroke:none;stroke-width:1.5625px;stroke-linecap:butt;stroke-linejoin:miter;stroke-miterlimit:4;stroke-dasharray:none;stroke-dashoffset:0;stroke-opacity:1;color-rendering:auto;image-rendering:auto;shape-rendering:auto;text-rendering:auto;enable-background:accumulate"
     d="M 140.39844,1.4511719 C 81.230755,1.0067838 24.481003,42.695339 7.7457901,99.553084 -8.4852809,150.97497 7.9830617,211.34385 49.401571,246.25884 c 38.833896,33.87757 97.089799,44.32906 144.684489,23.73951 46.31819,-18.89647 81.03397,-64.08649 85.6108,-114.1356 C 284.89034,108.16797 264.04818,58.15338 225.05285,29.761574 200.86795,11.559541 170.71854,1.2200345 140.39844,1.4511719 Z"
     id="circle4956"
     inkscape:connector-curvature="0" />
  <g
     id="g4175">
    <circle
       r="131.53836"
       cy="141"
       cx="141"
       id="path4586"
       style="color:#000000;clip-rule:nonzero;display:inline;overflow:visible;visibility:visible;opacity:1;isolation:auto;mix-blend-mode:normal;color-interpolation:sRGB;color-interpolation-filters:linearRGB;solid-color:#000000;solid-opacity:1;fill:url(#linearGradient4173);fill-opacity:1;fill-rule:evenodd;stroke:none;stroke-width:1.5625px;stroke-linecap:butt;stroke-linejoin:miter;stroke-miterlimit:4;stroke-dasharray:none;stroke-dashoffset:0;stroke-opacity:1;color-rendering:auto;image-rendering:auto;shape-rendering:auto;text-rendering:auto;enable-background:accumulate" />
  </g>
  <path
     style="color:#000000;clip-rule:nonzero;display:inline;overflow:visible;visibility:visible;opacity:1;isolation:auto;mix-blend-mode:normal;color-interpolation:sRGB;color-interpolation-filters:linearRGB;solid-color:#000000;solid-opacity:1;fill:#bababa;fill-opacity:1;fill-rule:evenodd;stroke:none;stroke-width:1.5625px;stroke-linecap:butt;stroke-linejoin:miter;stroke-miterlimit:4;stroke-dasharray:none;stroke-dashoffset:0;stroke-opacity:1;color-rendering:auto;image-rendering:auto;shape-rendering:auto;text-rendering:auto;enable-background:accumulate"
     d="M 141,9.4616422 A 131.53836,131.53836 0 0 0 122.86537,10.862444 L 15.599807,180.2312 a 131.53836,131.53836 0 0 0 43.328654,63.40195 L 198.6836,22.965314 A 131.53836,131.53836 0 0 0 141,9.4616422 Z M 211.34329,30.02763 70.745631,252.02484 a 131.53836,131.53836 0 0 0 40.904579,17.07055 L 244.31533,59.62376 A 131.53836,131.53836 0 0 0 211.34329,30.02763 Z M 252.91401,72.070635 126.49929,271.67397 A 131.53836,131.53836 0 0 0 141,272.53836 a 131.53836,131.53836 0 0 0 14.36223,-0.9431 L 265.202,98.164036 A 131.53836,131.53836 0 0 0 252.91401,72.070635 Z"
     id="rect4615"
     inkscape:connector-curvature="0" />
  <path
     style="color:#000000;clip-rule:nonzero;display:inline;overflow:visible;visibility:visible;opacity:1;isolation:auto;mix-blend-mode:normal;color-interpolation:sRGB;color-interpolation-filters:linearRGB;solid-color:#000000;solid-opacity:1;fill:#645b0f;fill-opacity:1;fill-rule:evenodd;stroke:none;stroke-width:1.5625px;stroke-linecap:butt;stroke-linejoin:miter;stroke-miterlimit:4;stroke-dasharray:none;stroke-dashoffset:0;stroke-opacity:1;color-rendering:auto;image-rendering:auto;shape-rendering:auto;text-rendering:auto;enable-background:accumulate"
     d="M 140.92969,38.669922 C 101.52096,38.385607 63.316992,63.002508 47.671483,99.233268 30.591529,136.00113 38.609448,182.39622 66.845933,211.44917 c 27.34696,29.4379 72.709237,39.88378 110.163247,25.28583 38.40377,-13.9308 65.93453,-52.73151 66.21938,-93.60974 1.48603,-41.92589 -25.9204,-82.906759 -65.29073,-97.443257 -11.74357,-4.708929 -24.38675,-6.845211 -37.00814,-7.012081 z"
     id="circle4966"
     inkscape:connector-curvature="0" />
  <circle
     r="100.33114"
     cy="141"
     cx="141"
     id="circle4630"
     style="color:#000000;clip-rule:nonzero;display:inline;overflow:visible;visibility:visible;opacity:1;isolation:auto;mix-blend-mode:normal;color-interpolation:sRGB;color-interpolation-filters:linearRGB;solid-color:#000000;solid-opacity:1;fill:url(#linearGradient4184);fill-opacity:1;fill-rule:evenodd;stroke:none;stroke-width:1.5625px;stroke-linecap:butt;stroke-linejoin:miter;stroke-miterlimit:4;stroke-dasharray:none;stroke-dashoffset:0;stroke-opacity:1;color-rendering:auto;image-rendering:auto;shape-rendering:auto;text-rendering:auto;enable-background:accumulate" />
  <path
     style="color:#000000;clip-rule:nonzero;display:inline;overflow:visible;visibility:visible;opacity:1;isolation:auto;mix-blend-mode:normal;color-interpolation:sRGB;color-interpolation-filters:linearRGB;solid-color:#000000;solid-opacity:1;fill:#fbf7db;fill-opacity:1;fill-rule:evenodd;stroke:none;stroke-width:1.5625px;stroke-linecap:butt;stroke-linejoin:miter;stroke-miterlimit:4;stroke-dasharray:none;stroke-dashoffset:0;stroke-opacity:1;color-rendering:auto;image-rendering:auto;shape-rendering:auto;text-rendering:auto;enable-background:accumulate"
     d="m 141,40.668476 a 100.33114,100.33114 0 0 0 -29.16613,4.431257 L 41.834596,155.6246 a 100.33114,100.33114 0 0 0 35.038997,62.49967 L 183.26602,50.132999 A 100.33114,100.33114 0 0 0 141,40.668476 Z M 194.64153,56.34842 87.399287,225.67782 a 100.33114,100.33114 0 0 0 37.237133,14.19314 L 223.39076,83.944654 A 100.33114,100.33114 0 0 0 194.64153,56.34842 Z M 230.57844,95.856573 138.522,241.20762 a 100.33114,100.33114 0 0 0 2.478,0.12391 100.33114,100.33114 0 0 0 25.29314,-3.31033 l 73.22944,-115.62519 a 100.33114,100.33114 0 0 0 -8.94414,-26.539437 z"
     id="circle4644"
     inkscape:connector-curvature="0" />
  <g
     id="g4793"
     style="font-style:normal;font-variant:normal;font-weight:normal;font-stretch:normal;font-size:40px;line-height:125%;font-family:'URW Gothic L';-inkscape-font-specification:'URW Gothic L';letter-spacing:0px;word-spacing:0px;fill:#003c05;fill-opacity:1;stroke:none;stroke-width:1px;stroke-linecap:butt;stroke-linejoin:miter;stroke-opacity:1"
     transform="matrix(6.078745,0,0,6.078745,-1005.443,-880.4215)" />
  <g
     id="g4800"
     style="font-style:normal;font-variant:normal;font-weight:normal;font-stretch:normal;font-size:40px;line-height:125%;font-family:'URW Gothic L';-inkscape-font-specification:'URW Gothic L';letter-spacing:0px;word-spacing:0px;fill:#003c05;fill-opacity:1;stroke:none;stroke-width:1px;stroke-linecap:butt;stroke-linejoin:miter;stroke-opacity:1"
     transform="matrix(6.078745,0,0,6.078745,-764.5234,-691.93)" />
  <path
     style="font-style:normal;font-weight:normal;font-size:40px;line-height:125%;font-family:sans-serif;letter-spacing:0px;word-spacing:0px;fill:#000000;fill-opacity:1;stroke:none;stroke-width:1px;stroke-linecap:butt;stroke-linejoin:miter;stroke-opacity:1"
     d="m 139.56836,54.216797 c -28.71917,1.383981 -52.743821,33.914163 -41.810548,61.462893 7.858908,20.19979 27.445348,32.25803 46.091798,41.4082 9.98201,5.97452 19.53827,18.1852 14.75195,30.29492 -4.45959,9.91325 -18.15072,9.65624 -26.14453,4.38477 -6.5686,-3.34807 -8.8725,-10.7506 -11.24023,-17.0957 -6.20639,-10.11505 -24.660817,-11.91675 -29.595706,0.28515 -2.500623,10.04221 3.333443,19.86099 7.671875,28.57422 16.392601,25.8468 57.629101,32.39787 79.210941,9.52344 15.51838,-16.51529 15.16641,-43.95435 1.25781,-61.35352 -10.22623,-15.37833 -26.66392,-24.89115 -42.83203,-32.81445 -7.82679,-5.59963 -15.07062,-16.89598 -9.5293,-26.302736 6.50037,-8.513649 21.61518,-5.986991 25.19259,4.052841 5.66711,10.164565 14.74752,22.457015 27.85819,20.826065 11.20473,-2.58623 11.87292,-16.7693 8.36914,-25.580078 C 181.45113,74.59136 166.53245,59.145765 147.73633,54.947266 145.051,54.409742 142.30717,54.15086 139.56836,54.216797 Z"
     id="path4894"
     inkscape:connector-curvature="0" />
  <path
     style="font-style:normal;font-weight:normal;font-size:40px;line-height:125%;font-family:sans-serif;letter-spacing:0px;word-spacing:0px;fill:url(#linearGradient4910);fill-opacity:1;stroke:none;stroke-width:1px;stroke-linecap:butt;stroke-linejoin:miter;stroke-opacity:1"
     d="m 140.74414,58.201172 c -25.77489,-0.13525 -48.029052,30.91474 -40.51172,52.830078 7.51733,21.91534 26.65826,32.73229 39.92316,39.55298 13.2649,6.82069 19.12261,13.00083 22.48474,23.18883 3.36213,10.188 0.0386,20.63075 -11.04207,24.71623 -11.08065,4.08548 -28.60289,-5.09741 -31.46617,-14.72739 -3.25555,-20.00825 -29.45355,-15.22713 -24.896963,-1.25493 3.45115,9.82714 4.453252,17.98572 15.166043,28.00112 10.71279,10.0154 34.59468,16.87272 51.01925,9.43564 16.42457,-7.43708 26.47977,-22.51876 24.66003,-42.05104 -1.81974,-19.53228 -21.30232,-40.77306 -36.9121,-47.86549 -15.60978,-7.09243 -24.64672,-13.47637 -27.71069,-28.30943 -3.06397,-14.833063 16.83679,-23.176831 26.87683,-15.644902 10.04004,7.531929 10.01658,14.867972 15.76122,20.304082 5.74464,5.43611 18.65093,13.75545 22.37156,-0.77948 3.72063,-14.534929 -19.94823,-47.261048 -45.72312,-47.396298 z"
     id="flowRoot4864"
     inkscape:connector-curvature="0"
     sodipodi:nodetypes="zzzzzcczzzzzzzzz" />
</svg>
